<svg version="1" xmlns="http://www.w3.org/2000/svg" width="160" height="160" viewBox="0 0 120.000000 120.000000"><path d="M44.7 16.6C28.3 20.5 16.3 29 10.3 40.9c-3.9 7.7-3.9 18.2-.1 26.4C12.6 72.5 22 83 24.2 83c1.4 0 .9 2.8-1.6 9-6 14.8-4.5 15.8 9.7 6.2 10.3-7.1 10.4-7.1 14.8-6.1 12.8 2.9 31.1.5 43-5.6 24.4-12.6 29.7-39.3 11.2-56.7-5.8-5.5-17-11.2-26.4-13.4-5.2-1.3-24.5-1.1-30.2.2zm23.8 3.9c20.8 2.2 38 16.5 38.9 32.3 1.2 22.8-28.6 40.2-59.3 34.6-6.3-1.2-6.4-1.2-11.5 1.9-2.8 1.7-6 4-7.1 5-2.7 2.5-2.9.9-.5-5.2 2.6-6.7 2.6-7.3-.9-9.4-4.6-2.7-10.9-9.3-13.2-13.9-2.4-4.8-3.2-13.1-1.7-18.5 2.5-9 10.7-17.3 22.6-22.8 2.8-1.3 5.2-2.2 5.2-2 0 .3 1.2 0 2.7-.6 1.5-.6 5.5-1.3 8.8-1.6 3.3-.3 6.2-.7 6.4-.9.2-.2 1.3-.2 2.5.1 1.2.2 4.4.7 7.1 1z"/><path d="M36.6 38.4c-.9 3.7-1.4 7.1-1.2 7.5.8 1.2 8.9.6 9.4-.7.2-.7-.1-1.3-.7-1.3-.6-.1-1.5-.3-2.1-.4-.5-.1-1.5-.3-2.1-.4-1.8-.2-.4-2.6 1.7-2.7 1-.1 2.5-.2 3.2-.3.6-.1 1.2-.7 1.2-1.5s-.9-1.2-2.5-1.1c-2.8.4-4.4-1.3-2.6-2.5.7-.4 2.3-.6 3.7-.4 1.3.1 2.4-.2 2.4-.7v-1.6c0-.4-2-.8-4.4-.8h-4.5l-1.5 6.9zM61.1 32.9c-1.1 1.9-2.3 7.7-2.5 11.5-.2 3.8 2.1 2.6 3-1.6.7-3.4 1.4-4.4 3.2-4.6 2-.3 2.2 0 1.7 2.5-.4 1.5-.8 3.3-1 4-.2.6.2 1.4 1 1.7 1.4.5 1.8-.4 3-6 .7-3.7-1.3-5.9-4.6-4.9-1.8.6-2 .4-1.5-1.3.9-2.7-1-3.8-2.3-1.3zM49.8 36.3c-2.6 2.1-3.3 6.5-1.3 8.7 2.5 2.8 8.4 1.2 8.5-2.3 0-1-1.8-.9-2.5.3-1.5 2.4-4.9 0-4-2.9.7-2.3 4-2.9 4.8-.9.3 1 .8 1 1.6.2 1-.9.8-1.5-.4-2.8-2-1.9-4.4-2-6.7-.3zM73.2 36.6c-1.3.9-2.2 2.5-2.2 4.2 0 3.7 1 5 4.3 5.6 2 .3 3.1-.1 4.7-2.1 2.5-3.2 2.5-5.5.2-7.6-2.3-2.1-4.1-2.1-7-.1zm5.3 2.4c.9 1.4-1.3 5-3 5-1.5 0-2.1-4-.8-5.3 1-1 3.1-.8 3.8.3zM28 56.5c-1.9 2.3-.4 5.9 3 7.2 1.6.6 3 1.6 3 2.2 0 1.5-4.3 1.4-5.8-.1-.9-.9-1.5-.9-2.3-.1-1.3 1.3 2.5 4.3 5.4 4.3 5.1 0 7.7-5.1 4-8.1-.9-.8-1.7-1.2-1.7-1-.1.3-1 0-2.1-.7-2.9-1.7-.1-3.4 3.2-1.9 2.8 1.2 4.1.3 2.3-1.8-1.6-1.9-7.4-2-9 0zM75.9 55.7c-.1.9-.3 2.2-1.7 8.2-.6 2.5-.8 4.9-.5 5.3.7 1.3 2.8.4 2.8-1.2 0-2.2 2.3-2.3 3-.1.3 1.2 1.3 2.1 2.1 2.1 1.6 0 1.9-2.6.4-3.5-1.7-1.1-1.1-4.4 1-5.5 1.1-.6 2-1.5 2-2 0-1.2-3-.2-5.3 1.9-1.8 1.5-1.8 1.4-1.2-2.2.6-3 .4-3.7-.9-3.7-.9 0-1.6.3-1.7.7zM41.1 58.9c-.7.5-1.7 2.8-2.2 5.2-.4 2.4-1 5.4-1.3 6.6-.7 3.3 2.2 3 3-.2.5-2 .9-2.3 2-1.4 3.3 2.7 8.2-2.7 7-7.7-.6-2.3-4.2-3.9-5.2-2.2-.4.7-.9.7-1.3 0-.4-.6-1.2-.7-2-.3zm5.4 3.1c1 1.6-.5 5-2.1 5-2 0-2.9-2.7-1.4-4.5 1.4-1.7 2.6-1.9 3.5-.5zM54.3 59.1c-4.1 1.5-4.2 9.2-.2 10.4 2.5.8 5.6-.2 6.3-2 .6-1.7-1.9-2.1-2.9-.5-.7 1.1-3.5.2-3.5-1.1 0-.5 1.5-.9 3.4-.9 3.7 0 5.2-1.9 3.3-4.3-1.7-2-3.8-2.6-6.4-1.6zm4.2 2.9c.4.6-.5 1-2 1s-2.4-.4-2-1c.3-.6 1.2-1 2-1s1.7.4 2 1z"/><path d="M64.3 60.2c-1.8 2.1-1.8 2.1 1.4 1.5 1.8-.4 3.5-.2 3.8.2.2.5-1.1 1.2-3.1 1.5-6.3 1.2-5.4 6.7 1.1 6.3 1.9-.2 3.6-.5 3.8-.7 1-1 1.6-7.5.9-8.7-1.4-2.2-5.9-2.3-7.9-.1zm4.7 5.6c0 1.4-1.1 2.1-2.6 1.5-2.1-.8-1.7-2.3.6-2.3 1.1 0 2 .4 2 .8zM87.8 59.1c-2.7 1.5-2.2 4.8.8 5.9 1.4.6 2.2 1.4 1.9 2-.4.7-1.3.6-2.6-.1-1.1-.5-2.5-.9-3.1-.7-1.8.6 2.1 3.8 4.6 3.8 4.7 0 6-5.6 1.6-6.7-3.2-.9-2.3-2.5 1-1.8 2.5.5 2.9.4 2.4-.9-.3-.9-1-1.6-1.4-1.6-.5 0-1.4-.2-2.2-.5-.7-.2-2.1 0-3 .6z"/></svg>